<svg width="160" height="181" viewBox="0 0 160 181" fill="none" xmlns="http://www.w3.org/2000/svg">
<g filter="url(#filter0_d_728_1363)">
<rect x="7" width="149" height="149" rx="74.5" fill="#EFF2FD"/>
<g clip-path="url(#clip0_728_1363)">
<path d="M142.011 57.1205C141.523 52.7871 140.861 48.4051 140.048 44.2759C139.637 42.1925 139.308 40.1733 138.709 38.2575C138.131 36.4075 137.624 34.4902 136.931 32.9106C136.896 32.8819 136.863 32.8192 136.835 32.7788C135.542 30.9285 134.097 27.653 130.767 27.8389C128.359 27.9728 126.598 30.7599 125.502 32.8685C124.798 34.2216 124.273 35.6293 123.814 37.0622C123.909 37.0951 124.022 37.1094 124.162 37.0906C126.145 39.8945 127.235 44.2732 128.089 48.5877C129.697 56.7203 130.208 65.2581 130.767 74.2756C131.576 87.3837 132.868 102.118 131.214 115.141C129.77 126.496 129.274 132.002 117.744 138.723C127.174 139.946 137.455 135.427 139.957 125.562C140.967 121.583 141.72 117.241 142.189 112.985C143.176 104.004 143.706 94.8388 143.706 84.9611C143.705 75.3 143.008 65.9777 142.011 57.1205Z" fill="#4D3D87"/>
<path d="M130.767 27.8386C134.096 27.6527 135.541 30.9282 136.834 32.7785C136.863 32.8192 136.896 32.8816 136.931 32.9103C136.959 32.9345 136.987 32.9339 137.013 32.8679C135.506 29.3313 134.451 26.8477 132.373 24.5145C130.832 22.7869 128.74 21.3564 126.369 20.5944C125.875 20.4357 124.478 21.3286 123.962 21.2312C123.304 21.1072 123.522 20.0129 122.838 20.0013C121.436 19.977 119.988 20.2042 118.541 20.742C114.664 22.1833 111.104 25.921 109.349 30.1737C108.464 32.3228 107.741 34.6922 107.119 37.2696C106.476 39.9304 105.778 42.7708 106.048 45.5328C106.335 48.4891 107.995 50.4175 109.795 52.0903C110.964 53.1751 112.346 54.5063 114.347 54.5159C118.001 54.5326 119.462 51.0181 120.415 48.2283C121.28 45.6993 122.065 43.0798 122.824 40.4136C123.145 39.2894 123.46 38.1688 123.815 37.062C124.273 35.6291 124.798 34.221 125.502 32.8682C126.597 30.7597 128.359 27.9725 130.767 27.8386Z" fill="#8F7ECE"/>
<path d="M116.666 34.1258C117.804 31.1169 119.271 28.2811 121.216 25.6819C122.608 23.8249 124.431 22.4225 126.124 20.8316C126.19 20.7703 126.271 20.6887 126.36 20.5922C125.229 20.23 124.035 20.0209 122.809 20.0029C121.418 20.8749 120.232 21.98 119.165 23.0773C114.112 28.2718 111.617 34.4247 109.885 42.6589C109.323 45.3247 108.867 47.505 109.081 50.6531C109.098 50.9092 109.128 51.1952 109.171 51.4913C109.377 51.6946 109.585 51.8945 109.794 52.0902C110.279 52.5402 110.802 53.0321 111.389 53.4549C111.534 53.0644 111.639 52.5755 111.758 52.0902C113.288 45.8841 114.659 39.4309 116.666 34.1258Z" fill="#EFAD1B"/>
<path fill-rule="evenodd" clip-rule="evenodd" d="M131.117 32.4046C131.716 31.8646 132.629 32.6598 133.08 33.2126C133.618 33.8745 134.175 35.0716 134.508 36.087C134.902 37.2952 135.265 38.6286 135.131 39.6801C135.049 40.3423 134.604 40.822 134.24 40.8474C133.151 40.9241 132.303 37.8579 132.008 37.0749C131.43 35.5312 130.762 34.0072 131.117 32.4046Z" fill="white"/>
<path fill-rule="evenodd" clip-rule="evenodd" d="M135.398 44.8898C136.899 44.1968 137.671 49.1834 136.29 49.1111C135.524 49.0713 134.39 45.3551 135.398 44.8898Z" fill="white"/>
<path d="M24.7769 57.1207C25.2658 52.7874 25.9264 48.4054 26.741 44.2762C27.1501 42.1927 27.4811 40.1736 28.0787 38.2578C28.6565 36.4077 29.1644 34.4904 29.8576 32.9108C29.8909 32.8822 29.9253 32.8194 29.9541 32.7791C31.2446 30.9287 32.6919 27.6533 36.0216 27.8391C38.4296 27.973 40.1894 30.7602 41.2858 32.8687C41.9894 34.2218 42.5158 35.6296 42.9741 37.0625C42.8776 37.0953 42.7654 37.1097 42.625 37.0908C40.6419 39.8947 39.5518 44.2735 38.6977 48.588C37.0889 56.7206 36.578 65.2584 36.0216 74.2758C35.2109 87.3839 33.92 102.118 35.5751 115.141C37.0167 126.497 37.5134 132.003 49.0426 138.723C39.6135 139.946 29.3339 135.427 26.8295 125.562C25.8204 121.584 25.0666 117.241 24.5997 112.985C23.6128 104.004 23.082 94.8391 23.082 84.9613C23.0817 75.3002 23.7779 65.978 24.7769 57.1207Z" fill="#4D3D87"/>
<path d="M36.0213 27.8387C32.6916 27.6528 31.2443 30.9283 29.9538 32.7786C29.925 32.8193 29.8909 32.8817 29.8573 32.9104C29.8276 32.9346 29.7994 32.934 29.7754 32.868C31.2817 29.3314 32.3353 26.8478 34.4141 24.5145C35.9492 22.793 38.0318 21.3664 40.3919 20.6026C40.9403 20.4251 42.5161 20.9519 43.0908 20.8506C43.6953 20.7439 43.3001 20.0136 43.9265 20.0016C45.3361 19.9747 46.7908 20.2013 48.2458 20.7421C52.1238 22.1834 55.6837 25.9211 57.4373 30.1738C58.3241 32.3229 59.0461 34.6923 59.6692 37.2697C60.3099 39.9305 61.0084 42.7709 60.7383 45.5329C60.4512 48.4892 58.7917 50.4176 56.9908 52.0904C55.8247 53.1752 54.4421 54.5064 52.4409 54.516C48.7861 54.5327 47.326 51.0182 46.3719 48.2283C45.508 45.6994 44.723 43.0798 43.9636 40.4137C43.6424 39.2895 43.3265 38.1689 42.9736 37.062C42.5152 35.6292 41.9888 34.2211 41.2852 32.8683C40.1895 30.7598 38.4296 27.9726 36.0213 27.8387Z" fill="#8F7ECE"/>
<path d="M50.121 34.1261C48.9831 31.1172 47.5147 28.2813 45.5696 25.6821C44.1782 23.8252 42.3553 22.4231 40.6608 20.8318C40.597 20.7706 40.5159 20.689 40.4277 20.5925C41.5568 20.2303 42.7508 20.0211 43.9769 20.0032C45.3668 20.8752 46.5552 21.9802 47.621 23.0775C52.6735 28.272 55.1706 34.4249 56.9013 42.6591C57.463 45.325 57.9187 47.5052 57.7062 50.6534C57.6881 50.9095 57.6575 51.1955 57.6144 51.4916C57.4093 51.6948 57.203 51.8947 56.991 52.0904C56.5059 52.5405 55.9852 53.0324 55.3968 53.4552C55.254 53.0646 55.1477 52.5757 55.0278 52.0904C53.4974 45.8844 52.127 39.4312 50.121 34.1261Z" fill="#EFAD1B"/>
<path fill-rule="evenodd" clip-rule="evenodd" d="M35.6687 32.4048C35.0682 31.8648 34.1556 32.66 33.7046 33.2128C33.167 33.8747 32.6098 35.0718 32.2773 36.0873C31.8824 37.2954 31.5196 38.6288 31.6532 39.6804C31.7366 40.3426 32.1817 40.8222 32.5459 40.8476C33.6346 40.9244 34.4818 37.8581 34.7758 37.0752C35.3558 35.5314 36.0232 34.0074 35.6687 32.4048Z" fill="white"/>
<path fill-rule="evenodd" clip-rule="evenodd" d="M31.3862 44.8901C29.8852 44.1971 29.114 49.1836 30.4935 49.1113C31.2601 49.0716 32.3935 45.3553 31.3862 44.8901Z" fill="white"/>
<path fill-rule="evenodd" clip-rule="evenodd" d="M102.812 45.7312C102.687 46.0124 98.7874 44.4378 97.6462 44.4331C97.659 42.7241 97.7403 37.7438 97.6326 36.1669C97.537 34.7558 97.4108 33.1858 96.6829 32.554C95.8288 31.813 92.9589 31.7096 90.982 31.5972C86.4831 31.3411 82.7728 31.2789 77.9981 31.2789C75.7351 31.2789 73.3366 31.3175 72.191 32.0224C70.3545 33.1538 69.7616 40.842 68.9135 43.0486C67.0853 43.0486 65.3073 42.996 63.6356 42.8361C63.5679 38.9642 64.7305 32.1402 66.0682 29.8972C67.7491 27.0828 70.6977 26.0175 75.1188 25.6947C75.3696 25.6765 75.6255 27.1545 75.8859 27.1408C77.812 27.0392 80.5323 27.1716 83.1697 27.3532C87.1374 27.6258 91.6532 25.8824 95.3799 26.5043C97.8318 26.9134 99.9417 27.6996 101.329 29.2595C103.475 31.6749 103.394 41.4032 102.812 45.7312Z" fill="#4D3D87"/>
<path fill-rule="evenodd" clip-rule="evenodd" d="M76.0967 28.8355C76.8338 29.4018 78.7692 29.4425 80.4254 29.3666C83.8282 29.2106 86.7328 29.2599 90.0323 29.2599C91.7274 29.2599 93.7227 29.3743 94.4652 28.8352C95.0406 28.4169 95.2754 27.4311 95.3101 26.4945C91.5971 25.8864 87.1125 26.1303 83.1691 25.8595C80.5317 25.6781 77.8114 25.5454 75.8853 25.6471C75.6172 25.6611 75.3539 25.6787 75.0956 25.6979C75.0125 26.7482 75.3777 28.2815 76.0967 28.8355Z" fill="#8F7ECE"/>
<path fill-rule="evenodd" clip-rule="evenodd" d="M83.2792 35.322C91.228 34.941 98.6552 36.0619 104.708 37.8749C106.22 38.3274 107.662 38.9172 109.061 39.534C110.446 40.1439 111.81 40.7831 113.077 41.4913C115.652 42.9293 117.749 44.9028 119.461 47.1075C120.35 48.255 121.174 49.4124 121.869 50.7236C123.922 54.6039 125.318 59.2839 126.138 64.4655C127.218 71.2884 127.471 79.5997 127.154 87.1789C126.995 90.9402 126.594 94.6373 126.265 98.3261C125.941 101.969 125.557 105.64 125.25 109.346C124.628 116.87 124.492 124.683 123.094 131.257C122.737 132.941 122.269 134.449 121.616 135.809C120.957 137.18 120.244 138.421 119.248 139.426C118.219 140.464 117.003 141.164 115.529 141.724C114.798 142.001 114.089 142.298 113.288 142.489C112.496 142.678 111.664 142.799 110.753 142.914C105.569 143.571 99.6786 143.851 93.7188 143.851C91.7775 143.851 89.847 144.021 87.9285 144.021C85.9858 144.021 83.9953 144.063 81.9688 143.977C80.0382 143.896 78.0536 143.851 76.0927 143.851C72.1761 143.851 68.276 143.647 64.6396 143.34C62.731 143.178 60.9174 143.023 59.2282 142.744C57.5398 142.465 55.9827 141.957 54.6646 141.341C51.8891 140.042 50.3311 137.689 49.1688 134.83C48.0012 131.959 47.5503 128.472 47.1409 124.832C46.9375 123.036 46.7066 121.197 46.5911 119.344C46.4711 117.444 46.4035 115.54 46.2942 113.643C46.0846 109.994 45.6399 106.212 45.3225 102.581C44.662 95.0139 43.886 88.0153 43.8848 80.0318C43.8848 76.1315 44.1309 72.2638 44.5195 68.6354C44.9096 65.0019 45.5012 61.5487 46.3803 58.4663C47.2715 55.3358 48.2957 52.3941 49.8027 49.8723C52.0491 46.1136 55.0084 43.0297 58.9743 41.0225C60.272 40.3657 61.6127 39.679 63.0323 39.1082C65.8799 37.9634 68.998 37.1308 72.3741 36.4701C75.7305 35.8133 79.304 35.3214 83.1955 35.3214C83.2222 35.322 83.2504 35.3229 83.2792 35.322Z" fill="#FF5000"/>
<path fill-rule="evenodd" clip-rule="evenodd" d="M83.2792 35.322C91.228 34.941 98.6552 36.0619 104.708 37.8749C106.22 38.3274 107.662 38.9172 109.061 39.534C110.446 40.1439 111.81 40.7831 113.077 41.4913C115.652 42.9293 117.749 44.9028 119.461 47.1075C120.35 48.255 121.174 49.4124 121.869 50.7236C123.922 54.6039 125.318 59.2839 126.138 64.4655C127.218 71.2884 127.471 79.5997 127.154 87.1789C126.995 90.9402 126.594 94.6373 126.265 98.3261C125.941 101.969 125.557 105.64 125.25 109.346C124.628 116.87 124.492 124.683 123.094 131.257C122.737 132.941 122.269 134.449 121.616 135.809C120.957 137.18 120.244 138.421 119.248 139.426C118.219 140.464 117.003 141.164 115.529 141.724C114.798 142.001 114.089 142.298 113.288 142.489C112.496 142.678 111.664 142.799 110.753 142.914C105.569 143.571 99.6786 143.851 93.7188 143.851C91.7775 143.851 89.847 144.021 87.9285 144.021C85.9858 144.021 83.9953 144.063 81.9688 143.977C80.0382 143.896 78.0536 143.851 76.0927 143.851C72.1761 143.851 68.276 143.647 64.6396 143.34C62.731 143.178 60.9174 143.023 59.2282 142.744C57.5398 142.465 55.9827 141.957 54.6646 141.341C51.8891 140.042 50.3311 137.689 49.1688 134.83C48.0012 131.959 47.5503 128.472 47.1409 124.832C46.9375 123.036 46.7066 121.197 46.5911 119.344C46.4711 117.444 46.4035 115.54 46.2942 113.643C46.0846 109.994 45.6399 106.212 45.3225 102.581C44.662 95.0139 43.886 88.0153 43.8848 80.0318C43.8848 76.1315 44.1309 72.2638 44.5195 68.6354C44.9096 65.0019 45.5012 61.5487 46.3803 58.4663C47.2715 55.3358 48.2957 52.3941 49.8027 49.8723C52.0491 46.1136 55.0084 43.0297 58.9743 41.0225C60.272 40.3657 61.6127 39.679 63.0323 39.1082C65.8799 37.9634 68.998 37.1308 72.3741 36.4701C75.7305 35.8133 79.304 35.3214 83.1955 35.3214C83.2222 35.322 83.2504 35.3229 83.2792 35.322Z" fill="#FF5000"/>
<path d="M117.763 126.348C117.487 129.638 117.115 132.818 116.491 135.752C116.133 137.437 115.667 138.944 115.013 140.303C114.671 141.014 114.314 141.689 113.912 142.315C114.467 142.14 114.993 141.926 115.529 141.724C117.003 141.164 118.219 140.464 119.248 139.426C120.244 138.422 120.957 137.18 121.616 135.809C122.269 134.449 122.737 132.942 123.094 131.257C123.513 129.293 123.815 127.219 124.055 125.075C122.029 125.075 119.159 125.67 117.763 126.348Z" fill="#EFAD1B"/>
<path opacity="0.21" d="M119.249 139.426C120.245 138.422 120.958 137.18 121.617 135.809C122.269 134.449 122.737 132.942 123.095 131.257C124.492 124.683 124.628 116.87 125.25 109.346C125.558 105.64 125.942 101.969 126.266 98.3262C126.594 94.6375 126.995 90.9404 127.154 87.179C127.472 79.5999 127.219 71.2885 126.138 64.4657C125.319 59.284 123.923 54.6038 121.869 50.7238C121.175 49.4125 120.351 48.2552 119.461 47.1077C117.749 44.9029 115.652 42.9295 113.078 41.4915C111.811 40.7833 110.446 40.1438 109.062 39.5342C107.662 38.9174 106.221 38.3275 104.709 37.8751C98.6557 36.0621 91.2285 34.9415 83.2797 35.3222C83.2509 35.3231 83.2227 35.3222 83.1963 35.3222C79.3045 35.3222 75.731 35.8141 72.3749 36.4709C68.9988 37.1316 65.8807 37.9641 63.0331 39.1089C61.6135 39.6797 60.2728 40.3664 58.9751 41.0232C56.9611 42.0431 55.2072 43.3421 53.6738 44.865C54.5645 44.4221 55.4785 43.9864 56.4297 43.6039C59.2767 42.4591 62.3948 41.6266 65.7709 40.9659C69.1259 40.309 72.6999 39.8169 76.5908 39.8169C76.6196 39.8169 76.6478 39.8184 76.6766 39.8169C84.6254 39.4359 92.0526 40.5574 98.1062 42.3698C99.6194 42.8225 101.059 43.4124 102.459 44.0291C103.843 44.6394 105.207 45.278 106.475 45.9862C109.048 47.4241 111.146 49.3976 112.857 51.602C113.748 52.7495 114.572 53.9072 115.266 55.2182C117.32 59.0987 118.716 63.779 119.536 68.9607C120.615 75.7811 120.866 84.093 120.549 91.6746C120.392 95.436 119.99 99.1316 119.662 102.82C119.338 106.463 118.954 110.136 118.647 113.84C118.026 121.366 117.889 129.177 116.492 135.751C116.134 137.437 115.668 138.944 115.014 140.303C114.672 141.014 114.315 141.689 113.913 142.314C114.468 142.139 114.994 141.925 115.53 141.724C117.004 141.164 118.219 140.464 119.249 139.426Z" fill="black"/>
<path fill-rule="evenodd" clip-rule="evenodd" d="M76.6763 39.8166C84.6251 39.4356 92.0523 40.5571 98.1059 42.3695C99.6191 42.8223 101.058 43.4121 102.458 44.0289C103.842 44.6391 105.207 45.2777 106.475 45.9859C109.048 47.4239 111.146 49.3974 112.856 51.6018C113.748 52.7493 114.571 53.907 115.266 55.2179C117.32 59.0985 118.716 63.7788 119.535 68.9604C120.615 75.7809 120.866 84.0928 120.549 91.6744C120.391 95.4357 119.99 99.1313 119.662 102.82C119.337 106.463 118.954 110.136 118.647 113.84C118.303 118.007 118.107 122.263 117.764 126.347C116.936 129.321 116.398 132.282 115.774 135.215C115.416 136.901 114.567 138.13 113.912 139.49C113.252 140.861 112.859 141.877 111.863 142.879C110.834 143.917 110.044 144.577 108.572 145.136C107.841 145.415 107.541 145.707 106.742 145.896C105.949 146.086 105.043 146.649 104.133 146.763C102.599 146.957 101.021 147.764 99.3807 147.894C95.475 148.205 91.3119 148.344 87.115 148.345C85.1746 148.345 83.2423 148.514 81.3238 148.515C79.3817 148.515 77.392 148.559 75.3656 148.473C73.4341 148.39 71.4498 148.345 69.4895 148.345C65.7756 148.345 62.0765 148.163 58.6016 147.882C58.4119 147.867 57.4215 146.973 57.233 146.956C55.3259 146.795 54.4608 146.568 52.7731 146.289C51.0815 146.012 50.29 145.763 48.9722 145.146C46.1973 143.848 45.0472 141.776 43.8849 138.919C42.7164 136.045 41.6453 133.093 41.2353 129.455C41.1246 128.473 40.3064 127.35 40.2022 126.347C40.1161 125.515 40.0401 124.678 39.9879 123.838C39.8679 121.94 39.8002 120.034 39.691 118.138C39.4814 114.487 39.0367 110.708 38.7193 107.074C38.0573 99.5076 37.2827 92.5105 37.2812 84.5264C37.2812 80.6231 37.5265 76.7569 37.916 73.1276C38.304 69.4962 38.8968 66.0436 39.7744 62.9606C40.6671 59.8298 41.6922 56.889 43.1983 54.3669C45.4456 50.6085 48.4049 47.5243 52.3708 45.5171C53.6682 44.8612 55.0083 44.1736 56.4288 43.6028C59.2758 42.458 62.3939 41.6254 65.77 40.9647C69.125 40.3079 72.699 39.8157 76.5899 39.8157C76.6193 39.8166 76.6472 39.8181 76.6763 39.8166Z" fill="#FF5000"/>
<path d="M48.3972 128.933C46.3648 127.654 43.5718 126.374 40.2031 126.347C40.3064 127.351 40.4249 128.347 40.5356 129.328C40.9456 132.966 41.3966 136.453 42.5651 139.326C43.7273 142.184 45.2853 144.537 48.0602 145.835C49.378 146.452 50.9346 146.961 52.6259 147.239C54.3136 147.518 56.1272 147.674 58.0343 147.836C58.2211 147.851 58.4131 147.864 58.6014 147.879C58.0435 142.587 56.6936 138.59 54.2308 134.93C52.6214 132.537 50.8942 130.501 48.3972 128.933Z" fill="#EFAD1B"/>
<path d="M106.684 146.984C107.483 146.794 108.193 146.497 108.924 146.218C110.397 145.659 111.614 144.958 112.644 143.92C113.64 142.917 114.351 141.674 115.011 140.303C115.666 138.944 116.131 137.437 116.49 135.752C117.113 132.818 117.486 129.638 117.761 126.349C114.4 126.379 111.613 127.657 109.583 128.933C107.086 130.5 105.362 132.537 103.751 134.93C101.286 138.594 99.9361 142.593 99.3789 147.893C101.019 147.763 102.615 147.603 104.148 147.408C105.058 147.294 105.891 147.174 106.684 146.984Z" fill="#EFAD1B"/>
<path fill-rule="evenodd" clip-rule="evenodd" d="M56.7569 48.6914C55.1663 47.6942 59.2881 45.1123 59.4695 46.9606C59.5651 47.9246 57.6642 48.6227 56.7569 48.6914Z" fill="white"/>
<path fill-rule="evenodd" clip-rule="evenodd" d="M53.4896 48.6129C53.8806 48.5456 54.7181 48.6206 54.7908 49.4203C54.8909 50.465 53.1918 51.6962 52.612 52.3124C51.9052 53.0627 50.9107 54.7953 49.787 54.5162C48.1845 54.1185 50.0702 51.7858 50.7518 51.011C51.1155 50.5995 51.5095 50.231 51.8327 49.8975C52.3888 49.3277 52.7364 48.7426 53.4896 48.6129Z" fill="white"/>
<path fill-rule="evenodd" clip-rule="evenodd" d="M111.763 65.6035C110.903 64.8896 110.289 63.1026 109.791 61.3105C109.576 60.5416 109.253 59.2943 109.913 59.0257C110.706 58.7008 111.297 60.0599 111.507 60.544C112.173 62.0863 112.666 64.0815 112.621 65.2204C112.5 65.4561 112.067 65.6321 111.763 65.6035Z" fill="white"/>
<path fill-rule="evenodd" clip-rule="evenodd" d="M107.805 59.7713C106.298 60.7574 104.74 57.1264 106.166 56.688C106.786 56.4985 108.191 57.9715 108.264 58.9462C108.289 59.2968 108.066 59.5992 107.805 59.7713Z" fill="white"/>
<path fill-rule="evenodd" clip-rule="evenodd" d="M105.75 52.3446C105.254 52.7486 104.439 52.3075 103.843 51.5972C103.363 51.0258 102.703 49.7143 103.496 49.3942C103.846 49.2517 104.545 49.5182 105.056 50.095C105.655 50.7715 106.386 51.8228 105.75 52.3446Z" fill="white"/>
<path d="M122.032 71.8393C121.386 72.2177 120.164 72.9017 119.789 72.5562C119.577 72.359 119.829 71.8638 120.07 71.4527C120.357 70.9644 120.799 70.4713 121.267 69.9496C122.093 69.025 122.95 68.0693 123.17 66.8976C123.282 66.2991 123.084 65.9423 122.901 65.7486C122.331 65.1525 121.195 65.3222 119.99 65.5015C119.294 65.6055 117.995 65.7991 117.805 65.5152C117.784 65.4827 117.6 65.142 118.402 63.7534C118.471 63.6341 118.601 63.4441 118.75 63.2256C119.635 61.9263 120.477 60.5738 120.188 59.5742C120.074 59.1861 119.806 58.8932 119.409 58.7229C118.89 58.5005 118.166 58.6649 117.324 58.8544C116.647 59.0071 115.72 59.2162 115.429 59.0104C115.407 58.9942 115.354 58.9575 115.337 58.8045C115.297 58.4781 115.654 57.8443 115.893 57.4245C115.984 57.2625 116.068 57.1122 116.131 56.9843C116.201 56.8441 116.274 56.7022 116.344 56.5606C116.71 55.8419 117.087 55.0975 117.304 54.2889C117.632 53.0661 117.449 52.2323 116.767 51.8137C115.991 51.3388 114.968 51.7808 114.221 52.1038C114.063 52.172 113.918 52.2353 113.792 52.2801C113.714 52.3088 113.62 52.3471 113.515 52.3895C112.883 52.6474 112.507 52.743 112.393 52.6725C112.305 52.4281 112.687 51.4859 112.813 51.1763C112.88 51.0101 112.938 50.8664 112.975 50.7618C113.021 50.6208 113.094 50.4471 113.173 50.2556C113.472 49.5408 113.842 48.6497 113.659 47.9752C113.546 47.5652 113.313 47.3617 113.136 47.2622C112.654 46.9903 112.065 47.1618 111.594 47.2996L111.43 47.3462C111.201 47.4107 110.942 47.5135 110.668 47.622C110.134 47.8345 109.405 48.1243 109.032 48.0129C108.722 47.9205 108.621 47.4612 108.715 46.5674C108.73 46.418 108.799 46.1219 108.87 45.8081C109.161 44.5524 109.561 42.8327 108.857 41.9978C108.821 41.955 108.773 41.9117 108.724 41.8687C108.722 41.8603 108.724 41.8546 108.724 41.8454C108.709 41.8358 108.694 41.8328 108.678 41.8247C108.616 41.7919 108.555 41.7611 108.498 41.7423C107.466 41.3947 106.028 42.4057 104.976 43.1432C104.715 43.3278 104.467 43.5015 104.333 43.572C103.545 43.9912 103.084 44.0669 102.883 43.8102C102.643 43.5033 102.64 42.7144 102.637 42.1382C102.635 41.8409 102.635 41.5609 102.609 41.3212L102.59 41.1518C102.543 40.6593 102.484 40.0464 102.053 39.6965C101.895 39.5677 101.622 39.4252 101.202 39.4727C100.511 39.5516 99.8268 40.2281 99.277 40.7723C99.1303 40.9178 98.9968 41.0496 98.8845 41.1464C98.8011 41.2193 98.6901 41.3263 98.5627 41.4506C98.3229 41.6834 97.5949 42.391 97.3375 42.3991C97.2312 42.319 97.1787 41.9308 97.182 41.2447C97.182 41.1312 97.1834 41.0296 97.1805 40.9453C97.176 40.8108 97.179 40.6518 97.1852 40.4788C97.2048 39.6606 97.233 38.5406 96.5081 37.9923C95.8674 37.5085 95.0314 37.6474 94.0247 38.4079C93.3582 38.9109 92.8131 39.5396 92.2847 40.1477C92.1814 40.2681 92.076 40.3874 91.9727 40.5048C91.8786 40.6121 91.7708 40.746 91.6553 40.8924C91.3561 41.2701 90.9054 41.84 90.5895 41.9231C90.4408 41.9637 90.3868 41.9281 90.3648 41.9132C90.0665 41.7175 89.9154 40.7735 89.8046 40.0841C89.6681 39.2273 89.5496 38.488 89.1533 38.0861C88.8487 37.7786 88.4791 37.6373 88.0792 37.6749C87.0505 37.7759 86.1145 39.0627 85.2434 40.3733C85.0971 40.5942 84.9709 40.7848 84.886 40.893C83.9036 42.1591 83.5219 42.1143 83.4821 42.1062C83.1496 42.0333 82.8473 40.749 82.6841 40.0587C82.4023 38.8669 82.1375 37.7416 81.376 37.4302C81.1293 37.3298 80.7262 37.2778 80.2161 37.6047C79.2169 38.2448 78.6537 39.3995 78.1071 40.5168C77.7996 41.1476 77.5081 41.7435 77.1634 42.1932C76.8727 42.5712 76.5106 42.9908 76.2484 42.8644C75.7565 42.6259 75.9993 41.0299 76.1026 40.3479C76.1362 40.1298 76.1641 39.9391 76.1778 39.7936C76.2045 39.5139 76.0008 39.2659 75.7223 39.2384C75.4421 39.21 75.1978 39.4168 75.1725 39.6965C75.1589 39.8271 75.1339 39.9983 75.1034 40.1946C74.9211 41.3974 74.6447 43.2155 75.8093 43.7806C76.838 44.2796 77.6541 43.2155 77.9623 42.8145C78.3684 42.2837 78.6964 41.6135 79.0138 40.9656C79.4974 39.9744 79.9985 38.9488 80.7576 38.4626C80.8996 38.3724 80.9764 38.3643 80.996 38.3724C81.2739 38.4865 81.5411 39.6176 81.7005 40.2935C82.0155 41.6287 82.3139 42.8898 83.2659 43.0995C83.9689 43.2546 84.7129 42.7672 85.6816 41.5199C85.7879 41.3819 85.9185 41.1864 86.0833 40.9384C86.5176 40.2831 87.5365 38.7498 88.1757 38.687C88.2463 38.6802 88.3238 38.69 88.436 38.8036C88.6046 38.9733 88.7207 39.7084 88.808 40.2457C88.9698 41.2671 89.139 42.3232 89.8132 42.7652C90.0181 42.8996 90.3642 43.0338 90.8449 42.9074C91.484 42.7395 92.0178 42.0668 92.4459 41.5265C92.5492 41.3962 92.6418 41.2767 92.7276 41.1814C92.8324 41.0609 92.9402 40.9396 93.045 40.8171C93.5393 40.2487 94.0487 39.66 94.6309 39.2214C95.2345 38.765 95.662 38.6249 95.9009 38.8057C96.21 39.0391 96.1886 39.8904 96.1735 40.4537C96.169 40.6486 96.1643 40.829 96.169 40.9803C96.172 41.0538 96.172 41.1419 96.1705 41.2402C96.1675 41.9517 96.1613 43.2759 97.2158 43.4082C97.8666 43.4886 98.5253 42.9008 99.2633 42.1824C99.3741 42.0752 99.47 41.9813 99.5421 41.9195C99.668 41.8098 99.8191 41.6619 99.9854 41.4981C100.353 41.1336 100.971 40.5233 101.315 40.4836C101.386 40.4755 101.414 40.4854 101.417 40.4878C101.519 40.5703 101.564 41.0311 101.585 41.2525L101.604 41.4339C101.624 41.6191 101.626 41.8732 101.626 42.1424C101.628 42.9471 101.631 43.8592 102.089 44.4419C102.905 45.4803 104.334 44.7222 104.805 44.4727C104.993 44.3729 105.241 44.1986 105.554 43.9781C106.067 43.6177 107.45 42.4054 108.139 42.7284C108.614 43.4438 108.028 44.9651 107.886 45.5783C107.799 45.9531 107.732 46.2501 107.709 46.462C107.653 46.9936 107.484 48.6117 108.743 48.9888C109.452 49.2004 110.294 48.8651 111.039 48.569C111.287 48.4704 111.521 48.3768 111.701 48.3272L111.875 48.277C112.087 48.2149 112.527 48.0855 112.641 48.1503C112.644 48.1524 112.665 48.176 112.683 48.2442C112.774 48.5812 112.44 49.3845 112.242 49.8644C112.151 50.0799 112.071 50.2759 112.017 50.434C111.986 50.5254 111.935 50.6491 111.878 50.7923C111.489 51.7491 111.191 52.5832 111.506 53.1614C112.02 54.0979 113.239 53.601 113.895 53.3329C113.985 53.2962 114.066 53.2627 114.135 53.2379C114.275 53.1871 114.442 53.116 114.619 53.0389C115.133 52.8168 115.909 52.481 116.24 52.6836C116.497 52.8398 116.525 53.2911 116.329 54.0247C116.138 54.7308 115.787 55.4262 115.445 56.0986C115.371 56.2435 115.299 56.3869 115.227 56.5304C115.17 56.6451 115.095 56.7775 115.013 56.9224C114.674 57.5231 114.25 58.2705 114.332 58.9324C114.395 59.4281 114.647 59.7012 114.848 59.8429C115.504 60.3079 116.542 60.0745 117.546 59.8483C118.072 59.729 118.794 59.5662 119.013 59.6597C119.16 59.7219 119.196 59.7915 119.216 59.859C119.396 60.4803 118.358 62.0013 117.917 62.6513C117.749 62.8969 117.618 63.0905 117.529 63.2421C116.738 64.6104 116.564 65.4866 116.968 66.0863C117.516 66.8991 118.788 66.7091 120.138 66.5085C120.821 66.4069 121.962 66.2357 122.172 66.4542C122.187 66.47 122.208 66.5447 122.176 66.7097C122.009 67.6008 121.25 68.4494 120.515 69.2682C120.035 69.8055 119.538 70.3595 119.199 70.9372C118.943 71.3735 118.265 72.5299 119.106 73.3069C119.841 73.984 120.947 73.5836 121.892 73.0831C121.85 72.6638 121.895 72.2335 122.032 71.8393Z" fill="white"/>
<path fill-rule="evenodd" clip-rule="evenodd" d="M121.918 71.5871C122.737 71.4914 123.36 71.8187 123.456 73.2982C123.508 74.1226 123.093 74.7182 123.12 75.1392C123.168 75.8821 123.678 76.6659 123.82 77.3843C123.939 77.9859 123.93 78.802 123.516 79.1352C122.905 79.6282 121.913 79.431 121.619 78.906C121.225 78.1992 121.342 77.3601 121.408 76.738C121.442 76.417 121.658 75.5979 121.308 74.9148C121.108 74.5272 120.837 74.1606 120.713 73.3328C120.508 71.9875 121.285 71.6603 121.918 71.5871Z" fill="#EFAD1B"/>
<path fill-rule="evenodd" clip-rule="evenodd" d="M75.6533 81.1137C80.506 80.8806 85.3382 81.0778 89.7278 81.5813C91.8816 81.8291 94.0073 82.127 95.9417 82.6458C97.9147 83.1714 99.7179 83.6949 101.31 84.5164C103.793 85.7981 105.69 87.3944 107.1 89.6646C108.509 91.9342 109.308 94.563 109.678 98.0034C109.916 100.212 109.913 102.575 110.016 104.938C110.447 114.779 110.088 124.224 105.24 129.104C102.893 131.467 99.1604 132.762 95.3067 133.699C92.2928 134.434 89.2104 134.817 85.7553 135.061C82.3573 135.301 78.7039 135.189 75.1889 135.189C72.8659 135.189 70.5889 134.936 68.4246 134.678C64.044 134.154 60.1555 133.197 56.8857 131.7C55.1428 130.901 53.694 130 52.5332 128.763C51.3998 127.557 50.5115 125.975 49.8281 124.212C48.4898 120.753 48.1237 116.384 48.0097 111.448C47.956 109.099 48.0516 106.898 48.1374 104.597C48.2262 102.215 48.2003 99.8828 48.4743 97.62C48.7439 95.4099 49.2768 93.4729 49.954 91.7914C51.3214 88.3976 53.8214 85.9508 57.0965 84.3873C60.3398 82.8421 64.4272 82.0388 68.7631 81.5386C70.9341 81.287 73.1806 81.2314 75.6533 81.1137Z" fill="#4D3D87"/>
<path opacity="0.21" fill-rule="evenodd" clip-rule="evenodd" d="M79.0357 95.2389C81.3124 95.1289 84.0143 95.2374 86.3899 95.2389C90.0681 95.2389 93.5505 95.3229 97.3368 95.3229C100.09 95.3229 101.893 95.4308 104.523 95.4932C105.315 95.5129 105.696 95.5359 106.214 95.6217C106.756 95.712 107.338 95.8808 107.398 96.2597C107.561 97.2951 105.724 97.6224 104.691 97.7057C103.31 97.8187 101.843 97.7912 100.634 97.7912C97.8142 97.7912 95.0613 97.7491 92.5183 97.7491C89.7449 97.7491 87.0771 97.6466 84.5709 97.8758C82.0641 98.1059 79.6588 98.4695 77.5558 99.1099C75.5711 99.7144 73.5577 100.673 71.2575 101.109C66.2908 102.053 61.1671 101.115 56.5913 100.215C55.5445 100.01 54.2962 99.8489 53.1247 99.5357C52.2486 99.3003 50.5253 98.8526 50.5042 98.0455C50.4701 96.7402 53.3845 96.5714 54.7733 96.43C57.7622 96.1237 60.7883 95.9349 63.8615 95.7484C67.4676 95.5282 71.3223 95.3229 75.1463 95.3229C76.408 95.3229 77.7306 95.3008 79.0357 95.2389Z" fill="black"/>
<path fill-rule="evenodd" clip-rule="evenodd" d="M106.736 95.5963C107.557 95.6621 108.105 96.1053 107.914 97.5755C107.807 98.3955 107.284 98.899 107.23 99.3171C107.133 100.055 107.481 100.924 107.483 101.658C107.485 102.27 107.318 103.071 106.85 103.317C106.153 103.681 105.217 103.294 105.032 102.721C104.781 101.952 105.058 101.15 105.243 100.551C105.338 100.244 105.709 99.4814 105.496 98.7424C105.375 98.3229 105.18 97.9102 105.215 97.0735C105.274 95.715 106.101 95.5443 106.736 95.5963Z" fill="white"/>
<path d="M89.287 84.3735C88.6972 83.7444 87.7831 83.4857 87.4838 82.677C87.181 81.8663 87.3336 80.4113 87.3746 79.2312C87.4253 77.8214 87.3882 76.4847 87.7252 75.3743C88.2079 73.7848 89.7582 73.1405 90.5357 71.9324C93.1604 67.8474 91.0929 62.2593 87.0881 61.6557C83.7013 61.1453 80.9517 64.3158 80.7388 68.2266C80.6023 70.7777 81.8441 72.524 83.213 73.8314C83.8272 74.4183 84.5278 74.7452 84.8535 75.674C85.2187 76.7154 85.1124 78.1056 85.1032 79.4368C85.091 80.8001 84.7677 82.2581 84.8951 83.6115C84.9818 84.5522 85.5654 85.1193 85.6663 85.9949C85.7946 87.1349 85.62 88.4091 85.403 89.7279C86.2117 88.1513 87.0679 86.5848 87.985 85.5033C88.3077 85.1256 88.8572 84.77 89.287 84.3735ZM85.7863 72.4039C83.6149 72.1762 82.8437 69.915 83.0441 67.8306C83.2673 65.512 85.0135 63.16 87.3698 64.0532C90.9199 65.4015 89.627 72.8067 85.7863 72.4039Z" fill="#8F7ECE"/>
<path d="M89.8337 87.9973C88.9591 89.3698 88.1756 91.3896 87.5872 92.587C86.8804 94.0253 85.9695 95.8768 84.9961 97.844C85.86 97.7777 86.7423 97.7448 87.6413 97.7325C87.9738 96.2142 88.3063 94.7117 88.6432 93.2552C89.022 91.6203 89.5977 89.7012 89.8337 87.9973Z" fill="#8F7ECE"/>
<path d="M102.008 67.892C101.621 66.8452 100.587 65.5869 99.1532 65.1583C96.5234 64.3718 94.5008 66.279 93.3614 67.8069C91.0428 70.9135 89.5359 76.3925 89.7235 80.8997C89.7606 81.7878 90.0741 82.8612 89.8625 83.5683C89.7758 83.8623 89.5543 84.1262 89.2862 84.3736C88.8563 84.7701 88.3068 85.1257 87.985 85.5038C87.068 86.5849 86.2115 88.1517 85.4031 89.7283C85.2725 89.982 85.1433 90.2366 85.016 90.4888C84.1253 92.2525 83.2683 94.0996 82.3604 95.9191C81.9792 96.6862 81.5868 97.4811 81.1973 98.2933C82.1719 98.1367 83.1804 98.0115 84.2073 97.912C84.3287 97.8998 84.4486 97.8875 84.5695 97.8762C84.7105 97.8639 84.8533 97.8546 84.9952 97.8442C85.9686 95.8773 86.8795 94.0255 87.5863 92.5872C88.1747 91.3898 88.9582 89.37 89.8328 87.9975C90.173 87.4641 90.526 87.0269 90.8873 86.7765C91.3231 86.4753 92.1454 86.4938 92.4664 86.0635C92.9583 84.7429 91.7337 82.8056 92.9422 82.0293C93.2718 81.8183 93.6277 82.0308 94.0143 82.0141C96.3913 81.9133 97.925 80.135 99.4919 77.7477C101.301 74.9925 103.193 71.0943 102.008 67.892ZM88.6331 88.7768C88.5473 89.2974 88.0577 89.6488 87.5415 89.5625C87.0246 89.4755 86.6737 88.9824 86.761 88.4604C86.8459 87.9401 87.3372 87.5893 87.8526 87.6748C88.3713 87.7644 88.7213 88.2572 88.6331 88.7768ZM100.412 71.0491C100.128 73.244 98.9243 75.5447 97.5984 77.4294C96.3527 79.2018 94.2423 81.2526 92.328 79.8712C90.2039 78.3343 93.2537 70.3541 95.5547 68.0776C96.185 67.4545 97.2196 66.7577 98.0957 66.8398C100.078 67.0305 100.675 69.0096 100.412 71.0491Z" fill="#8F7ECE"/>
<path opacity="0.62" d="M102.008 67.892C101.621 66.8452 100.587 65.5869 99.1532 65.1583C96.5234 64.3718 94.5008 66.279 93.3614 67.8069C91.0428 70.9135 89.5359 76.3925 89.7235 80.8997C89.7606 81.7878 90.0741 82.8612 89.8625 83.5683C89.7758 83.8623 89.5543 84.1262 89.2862 84.3736C88.8563 84.7701 88.3068 85.1257 87.985 85.5038C87.068 86.5849 86.2115 88.1517 85.4031 89.7283C85.2725 89.982 85.1433 90.2366 85.016 90.4888C84.1253 92.2525 83.2683 94.0996 82.3604 95.9191C81.9792 96.6862 81.5868 97.4811 81.1973 98.2933C82.1719 98.1367 83.1804 98.0115 84.2073 97.912C84.3287 97.8998 84.4486 97.8875 84.5695 97.8762C84.7105 97.8639 84.8533 97.8546 84.9952 97.8442C85.9686 95.8773 86.8795 94.0255 87.5863 92.5872C88.1747 91.3898 88.9582 89.37 89.8328 87.9975C90.173 87.4641 90.526 87.0269 90.8873 86.7765C91.3231 86.4753 92.1454 86.4938 92.4664 86.0635C92.9583 84.7429 91.7337 82.8056 92.9422 82.0293C93.2718 81.8183 93.6277 82.0308 94.0143 82.0141C96.3913 81.9133 97.925 80.135 99.4919 77.7477C101.301 74.9925 103.193 71.0943 102.008 67.892ZM88.6331 88.7768C88.5473 89.2974 88.0577 89.6488 87.5415 89.5625C87.0246 89.4755 86.6737 88.9824 86.761 88.4604C86.8459 87.9401 87.3372 87.5893 87.8526 87.6748C88.3713 87.7644 88.7213 88.2572 88.6331 88.7768ZM100.412 71.0491C100.128 73.244 98.9243 75.5447 97.5984 77.4294C96.3527 79.2018 94.2423 81.2526 92.328 79.8712C90.2039 78.3343 93.2537 70.3541 95.5547 68.0776C96.185 67.4545 97.2196 66.7577 98.0957 66.8398C100.078 67.0305 100.675 69.0096 100.412 71.0491Z" fill="white"/>
<path d="M87.5418 89.5624C88.0581 89.6488 88.548 89.2973 88.6335 88.7768C88.7216 88.2571 88.3716 87.7643 87.853 87.6747C87.3376 87.5892 86.8463 87.9398 86.7614 88.4603C86.6741 88.9824 87.025 89.4754 87.5418 89.5624Z" fill="#4D3D87"/>
<path d="M97.7419 97.7789L98.9504 93.1235L96.7441 92.6367L95.4141 97.7628C96.1779 97.7667 96.954 97.773 97.7419 97.7789Z" fill="#B1BC00"/>
<path d="M95.9485 92.4615L94.7624 92.2009C94.253 94.045 93.7756 95.8971 93.3125 97.7505C93.7314 97.7519 94.1467 97.7534 94.5751 97.7564L95.9485 92.4615Z" fill="#B1BC00"/>
<path d="M101.026 93.6058C101.027 93.5974 101.023 93.5897 101.026 93.5807L99.7443 93.2971L98.5781 97.7837C99.035 97.7867 99.4996 97.7882 99.9628 97.7882C100.225 96.7797 100.476 95.7786 100.693 94.8095C100.786 94.3881 101.005 93.9602 101.026 93.6058Z" fill="#B1BC00"/>
<path d="M100.96 93.0907C100.949 92.9126 100.955 92.7375 100.958 92.572C101 90.8157 100.993 89.2675 100.8 87.5062L98.163 86.6662C98.2631 86.5431 98.3649 86.4149 98.4741 86.2849C97.3733 87.5926 96.7113 88.637 95.9887 89.8177C95.6123 90.4207 95.1542 91.0052 94.8977 91.5906C94.825 91.7565 94.825 91.9719 94.7665 92.1892C94.7635 92.1922 94.7635 92.1966 94.7635 92.2014L95.9495 92.462L94.5762 97.7569C94.8517 97.7584 95.1349 97.7599 95.4151 97.7632L96.7451 92.6371L98.9515 93.1239L97.7429 97.7794C98.0232 97.7808 98.2987 97.7823 98.5795 97.7838L99.7457 93.2972L101.027 93.5808C101.027 93.4302 100.968 93.2536 100.96 93.0907Z" fill="#EFAD1B"/>
<path d="M100.8 87.5058C100.793 87.4514 100.789 87.4003 100.784 87.3444C100.721 86.7928 100.617 85.5578 100.062 85.2775C99.6524 85.0728 99.0192 85.6381 98.4732 86.2845C98.364 86.4145 98.2622 86.5427 98.1621 86.6658L100.8 87.5058Z" fill="white"/>
<path d="M73.8971 67.6029C73.9107 66.8543 73.3155 66.2318 72.5671 66.2205C71.8199 66.2055 71.2044 66.8032 71.1908 67.5554L71.1641 69.0062L73.8683 69.045L73.8971 67.6029Z" fill="#EFAD1B"/>
<path d="M69.2471 86.0149L68.9375 101.416C69.7132 101.352 70.4878 101.256 71.2576 101.109C72.4228 100.887 73.5147 100.533 74.5662 100.158L74.851 86.098L69.2471 86.0149Z" fill="#B1BC00"/>
<path d="M69.2461 86.0135L74.8511 86.0968L74.8701 84.456L69.2719 84.375L69.2461 86.0135Z" fill="white"/>
<path d="M73.8539 69.8683L71.1473 69.8279L69.4815 69.8034L69.4937 68.9858H69.4922L69.2734 84.3743L74.8704 84.4568L75.083 69.8859L73.8539 69.8683ZM73.1091 78.32C72.2208 78.2788 72.1341 76.3355 72.838 75.994C73.8554 75.4925 74.2791 78.3714 73.1091 78.32ZM73.4986 74.6436C72.2915 74.8246 72.5343 72.5649 72.952 71.9191C72.9793 71.8788 73.0164 71.8633 73.0568 71.8352C74.2176 71.0513 74.5287 74.49 73.4986 74.6436Z" fill="#B1BC00"/>
<path d="M73.8691 69.0452V69.0476L71.1648 69.0085L69.4943 68.9849L69.4824 69.8025L71.1479 69.827L73.8545 69.8676L75.0836 69.8852L75.8534 69.8972L75.6349 85.3218L76.7995 85.3409L77.0213 69.9142L77.0311 69.0927L73.8691 69.0452Z" fill="white"/>
<path d="M73.0557 71.8345C73.0156 71.8626 72.9782 71.8782 72.9509 71.9185C72.5332 72.5643 72.2903 74.824 73.4974 74.6429C74.5276 74.4893 74.2164 71.0507 73.0557 71.8345Z" fill="white"/>
<path d="M72.8382 75.9932C72.1343 76.3348 72.221 78.2781 73.1093 78.3193C74.2792 78.3707 73.8556 75.4918 72.8382 75.9932Z" fill="white"/>
<path d="M69.1553 99.1451L67.0151 99.5205C66.861 99.5474 66.7182 99.4464 66.6918 99.2943C66.6645 99.1422 66.7678 98.9954 66.916 98.9673L69.0585 98.5935C69.1725 98.572 69.2818 98.6249 69.3402 98.7133L68.8605 95.9294C68.8459 96.0463 68.7601 96.1479 68.6363 96.1685L66.4938 96.5483C66.3442 96.5743 66.2008 96.4718 66.172 96.3197C66.1462 96.167 66.2471 96.0209 66.4012 95.9934L68.5399 95.6151C68.6643 95.596 68.7797 95.6602 68.8338 95.7687L68.3457 92.9259C68.3412 93.055 68.2522 93.1713 68.118 93.1958L65.9793 93.5726C65.8276 93.6016 65.6824 93.4985 65.656 93.3464C65.6302 93.1928 65.7305 93.0476 65.8813 93.021L68.023 92.6426C68.1566 92.6196 68.2798 92.7 68.3261 92.8222L67.8274 89.9215C67.8395 90.0629 67.7469 90.1958 67.6026 90.2179L65.461 90.5984C65.3084 90.625 65.1656 90.5242 65.1392 90.3706C65.1133 90.2179 65.2128 90.0748 65.3654 90.0467L67.5041 89.6678C67.6492 89.6424 67.7825 89.7359 67.8199 89.8764L67.3144 86.9243C67.3363 87.0749 67.2378 87.2192 67.0881 87.2467L64.9456 87.625C64.7945 87.6525 64.6511 87.5479 64.6223 87.3928C64.5956 87.2437 64.6989 87.0979 64.847 87.0704L66.9902 86.6951C67.1413 86.6661 67.2841 86.7677 67.3129 86.9198L62.6166 59.6111L51.498 61.5472L58.2003 100.526C61.8899 101.221 65.8668 101.795 69.7888 101.329L69.3773 98.9321C69.3512 99.0382 69.2678 99.1224 69.1553 99.1451ZM53.9903 62.5262C54.4784 62.5306 54.4876 63.1008 54.6227 63.7029C54.7631 64.3362 54.9201 64.6816 54.5104 64.952C53.3437 65.7185 52.5214 62.5058 53.9903 62.5262ZM55.972 70.2772C55.1977 70.735 54.802 69.9278 54.5654 68.8948C54.365 68.0237 54.112 65.8617 55.2396 66.266C55.4809 66.3547 55.9197 67.3415 56.1127 67.8716C56.4888 68.907 56.5351 69.9464 55.972 70.2772ZM57.7583 65.3767C57.7211 65.6101 57.5926 65.7619 57.416 65.8703C56.3045 66.529 56.0533 64.0227 56.8988 63.8267C57.3975 63.7098 57.844 64.8134 57.7583 65.3767ZM60.48 63.61C60.4518 63.4594 60.5536 63.3133 60.7047 63.2867L62.8434 62.9081C62.9984 62.8806 63.1418 62.9846 63.1685 63.1367C63.1928 63.2891 63.0925 63.4346 62.9423 63.4594L60.7997 63.8377C60.6522 63.8634 60.5058 63.7627 60.48 63.61ZM60.9969 66.5833C60.9725 66.4312 61.0699 66.2881 61.2246 66.2594L63.3632 65.8817C63.5158 65.8539 63.6616 65.9588 63.6883 66.1103C63.7127 66.2627 63.6117 66.4079 63.4606 66.4324L61.3205 66.8113C61.1664 66.8373 61.0245 66.7378 60.9969 66.5833ZM61.5149 69.5582C61.4882 69.4061 61.59 69.2608 61.7396 69.2342L63.8822 68.8544C64.0333 68.8299 64.1767 68.933 64.204 69.0845C64.2289 69.2357 64.1319 69.381 63.9778 69.4076L61.8391 69.7844C61.6862 69.8143 61.5404 69.7109 61.5149 69.5582ZM62.0318 72.5315C62.0068 72.3788 62.1054 72.2312 62.261 72.2052L64.3982 71.8269C64.5516 71.8018 64.6965 71.901 64.7215 72.0579C64.7503 72.2085 64.6487 72.3537 64.4952 72.3812L62.3536 72.7601C62.204 72.7855 62.06 72.6821 62.0318 72.5315ZM62.5504 75.5037C62.5246 75.3516 62.6279 75.2057 62.7766 75.1764L64.9183 74.8035C65.0679 74.776 65.2122 74.8767 65.2401 75.0258C65.268 75.1809 65.165 75.3262 65.0139 75.3545L62.8737 75.7296C62.722 75.7574 62.5768 75.6564 62.5504 75.5037ZM63.0682 78.4749C63.0429 78.3243 63.1433 78.1761 63.2973 78.151L65.4351 77.775C65.5848 77.7491 65.7326 77.8486 65.7602 78.0028C65.7822 78.1572 65.6851 78.3001 65.534 78.3246L63.3885 78.7044C63.2389 78.7307 63.0955 78.6267 63.0682 78.4749ZM63.5898 81.4467C63.5601 81.2961 63.6634 81.1533 63.813 81.1228L65.9547 80.7475C66.1058 80.72 66.2486 80.8216 66.2765 80.9737C66.3023 81.1243 66.202 81.271 66.0517 81.2991L63.9086 81.676C63.756 81.7034 63.6117 81.5995 63.5898 81.4467ZM64.1051 84.4216C64.0793 84.271 64.1797 84.1257 64.3328 84.0976L66.4715 83.7202C66.6226 83.6933 66.7675 83.7973 66.7948 83.9464C66.8183 84.1024 66.7212 84.2453 66.5701 84.2728L64.427 84.6526C64.2753 84.6777 64.1316 84.5737 64.1051 84.4216Z" fill="#EFAD1B"/>
<path d="M63.1678 63.1368C63.1411 62.9847 62.9977 62.8807 62.8427 62.9082L60.704 63.2868C60.5529 63.3131 60.4511 63.4596 60.4793 63.6102C60.5051 63.7626 60.6515 63.8636 60.799 63.8379L62.9416 63.4596C63.0921 63.4348 63.1921 63.2892 63.1678 63.1368Z" fill="white"/>
<path d="M63.6874 66.11C63.6607 65.9588 63.5149 65.8536 63.3623 65.8814L61.2236 66.2591C61.0686 66.2878 60.9716 66.431 60.9959 66.5831C61.0232 66.7379 61.1651 66.8371 61.3192 66.8108L63.4594 66.4319C63.6108 66.4076 63.7117 66.2624 63.6874 66.11Z" fill="white"/>
<path d="M64.2031 69.0848C64.1758 68.9333 64.0324 68.8302 63.8813 68.8547L61.7388 69.2345C61.5891 69.2611 61.4873 69.4063 61.514 69.5584C61.5399 69.7111 61.6856 69.8145 61.8382 69.7846L63.9769 69.4078C64.131 69.3812 64.2284 69.236 64.2031 69.0848Z" fill="white"/>
<path d="M64.721 72.0581C64.696 71.9015 64.5508 71.802 64.3977 71.8271L62.2605 72.2054C62.1049 72.2314 62.006 72.379 62.0313 72.5317C62.0595 72.6824 62.2035 72.7855 62.3531 72.7603L64.4947 72.3814C64.6482 72.3539 64.75 72.2087 64.721 72.0581Z" fill="white"/>
<path d="M65.2405 75.0259C65.2126 74.8768 65.068 74.7761 64.9187 74.8036L62.7771 75.1765C62.6283 75.2055 62.525 75.3516 62.5508 75.5037C62.5776 75.6564 62.7224 75.7574 62.8744 75.73L65.0146 75.3549C65.1654 75.3262 65.2687 75.1813 65.2405 75.0259Z" fill="white"/>
<path d="M65.7604 78.0026C65.7331 77.8484 65.5849 77.7489 65.4353 77.7749L63.2975 78.1508C63.1434 78.1759 63.0431 78.3244 63.0683 78.4747C63.0956 78.6268 63.239 78.7305 63.3887 78.7039L65.5342 78.3241C65.6853 78.2999 65.7824 78.1571 65.7604 78.0026Z" fill="white"/>
<path d="M66.2758 80.9739C66.2476 80.8218 66.1051 80.7202 65.954 80.7477L63.8123 81.123C63.6627 81.1535 63.5594 81.2963 63.5891 81.4469C63.6111 81.5996 63.7553 81.7036 63.9079 81.6761L66.0511 81.2993C66.2013 81.2712 66.3016 81.1245 66.2758 80.9739Z" fill="white"/>
<path d="M66.7933 83.9462C66.766 83.7971 66.6209 83.6934 66.47 83.72L64.3314 84.0974C64.1782 84.1255 64.0778 84.271 64.1037 84.4213C64.1304 84.5734 64.2738 84.6771 64.4255 84.652L66.5686 84.2722C66.7197 84.2453 66.8171 84.1022 66.7933 83.9462Z" fill="white"/>
<path d="M66.9893 86.6951L64.8461 87.0705C64.698 87.098 64.5947 87.2441 64.6214 87.3929C64.6502 87.548 64.7939 87.6529 64.9447 87.6251L67.0872 87.2468C67.2369 87.2193 67.3354 87.0749 67.3135 86.9243L67.312 86.9198C67.2832 86.7677 67.1404 86.6661 66.9893 86.6951Z" fill="white"/>
<path d="M67.5018 89.668L65.3631 90.0469C65.2105 90.0753 65.1111 90.2181 65.1369 90.3708C65.1633 90.5244 65.3061 90.6254 65.4587 90.5985L67.6004 90.2181C67.7446 90.196 67.8373 90.063 67.8251 89.9217L67.8174 89.8766C67.7806 89.7361 67.647 89.6426 67.5018 89.668Z" fill="white"/>
<path d="M68.0234 92.6428L65.8817 93.0211C65.7306 93.048 65.6306 93.1932 65.6564 93.3465C65.6828 93.4986 65.828 93.6017 65.9797 93.5727L68.1184 93.1959C68.2526 93.1714 68.3416 93.0554 68.3461 92.9261L68.3265 92.8221C68.2799 92.7001 68.157 92.6201 68.0234 92.6428Z" fill="white"/>
<path d="M68.5399 95.6157L66.4012 95.994C66.2471 96.0215 66.1462 96.1673 66.172 96.3203C66.2008 96.4724 66.3442 96.5749 66.4938 96.5489L68.6364 96.1691C68.7602 96.1485 68.846 96.0469 68.8605 95.93L68.8338 95.7696C68.7798 95.6608 68.6646 95.5965 68.5399 95.6157Z" fill="white"/>
<path d="M69.0586 98.5936L66.916 98.9674C66.7679 98.9958 66.6646 99.1425 66.6919 99.2943C66.7186 99.4464 66.8611 99.5474 67.0152 99.5205L69.1554 99.1452C69.2679 99.1222 69.3513 99.0382 69.3771 98.9318L69.34 98.7134C69.2818 98.6249 69.1723 98.5723 69.0586 98.5936Z" fill="white"/>
<path d="M55.2391 66.2662C54.1115 65.8618 54.3645 68.0239 54.5648 68.895C54.8018 69.928 55.1972 70.7351 55.9714 70.2773C56.5349 69.9465 56.4886 68.9072 56.1119 67.8718C55.9192 67.3419 55.4804 66.3549 55.2391 66.2662Z" fill="white"/>
<path d="M56.898 63.8264C56.0522 64.0225 56.3037 66.529 57.4152 65.8701C57.5921 65.7616 57.7204 65.6098 57.7575 65.3764C57.8433 64.8135 57.3968 63.7099 56.898 63.8264Z" fill="white"/>
<path d="M54.6225 63.703C54.4874 63.1009 54.4782 62.5307 53.9901 62.5262C52.5212 62.5059 53.3432 65.7186 54.5102 64.9521C54.9199 64.6817 54.7626 64.3362 54.6225 63.703Z" fill="white"/>
<path d="M72.6992 153.845L79.3376 155.86L83.6379 156.904L79.4828 155.378L72.8444 153.361L72.6992 153.845Z" fill="#8F7ECE"/>
<path d="M75.4645 152.706L69.6778 150.95L68.7441 154.067L74.5071 155.817C74.6899 156.627 75.1569 157.41 75.8418 158.062L77.8036 151.61C76.8812 151.764 76.0651 152.144 75.4645 152.706Z" fill="#FF5000"/>
<path d="M69.7026 149.515C69.9606 149.593 70.1058 149.866 70.0277 150.124L68.5911 154.915C68.5151 155.173 68.242 155.319 67.9861 155.241C67.7302 155.163 67.5844 154.89 67.661 154.632L69.0973 149.842C69.176 149.583 69.4467 149.436 69.7026 149.515Z" fill="#FF5000"/>
<path fill-rule="evenodd" clip-rule="evenodd" d="M16.3417 148.716C16.2651 148.675 16.293 148.627 16.3295 148.575C17.6922 148.09 19.0385 147.436 20.4017 146.957C21.1822 148.09 22.4546 148.045 23.2882 147.064C24.2463 147.323 28.0181 148.273 28.9823 148.603C28.1858 149.855 26.7557 150.4 25.7102 151.425C23.5228 150.727 18.5388 149.543 16.3417 148.716Z" fill="#8F7ECE"/>
<path opacity="0.62" fill-rule="evenodd" clip-rule="evenodd" d="M16.3417 148.716C16.2651 148.675 16.293 148.627 16.3295 148.575C17.6922 148.09 19.0385 147.436 20.4017 146.957C21.1822 148.09 22.4546 148.045 23.2882 147.064C24.2463 147.323 28.0181 148.273 28.9823 148.603C28.1858 149.855 26.7557 150.4 25.7102 151.425C23.5228 150.727 18.5388 149.543 16.3417 148.716Z" fill="white"/>
<path fill-rule="evenodd" clip-rule="evenodd" d="M22.4824 149.319C23.3047 147.575 25.7878 146.373 27.1947 146.296C28.8192 146.207 30.8685 147.097 32.7587 147.727C34.7493 148.392 36.5569 148.912 38.2856 149.458C41.9669 150.617 45.3296 151.605 49.3419 152.917C53.2844 154.21 57.0826 155.567 60.4177 156.616C62.16 157.165 63.9873 157.868 65.9671 158.583C67.6771 159.2 69.4608 159.797 70.9609 160.882C71.1752 161.037 71.2224 161.927 71.4243 162.104C73.9647 164.326 74.768 166.904 75.0248 169.613C75.1145 170.546 75.1367 171.465 74.6166 172.079C73.8976 172.924 72.9298 172.331 71.8699 172.079C70.713 171.803 69.5507 172.125 68.501 171.758C67.2594 171.324 66.039 170.844 64.712 170.359C63.1626 169.792 61.748 169.465 60.4453 168.164C59.5873 167.306 59.3474 166.24 58.4348 165.36C57.1722 164.135 55.442 163.664 53.9235 163.064C52.3566 162.447 50.9658 161.983 49.4725 161.481C43.3298 159.41 37.8561 157.712 31.7612 155.551C30.3727 155.06 29.019 154.646 27.3093 153.966C26.1007 153.484 23.7774 152.741 22.8612 151.727C22.396 151.211 22.1036 150.118 22.4824 149.319Z" fill="#FF5000"/>
<path d="M75.1813 172.443C75.7014 171.83 75.6815 170.542 75.5919 169.609C75.3354 166.901 74.1268 163.601 71.5864 161.379C71.4246 161.237 71.2554 161.107 71.0847 160.979C69.9361 161.784 69.9839 163.213 69.7007 164.278C69.0357 166.779 68.3552 169.54 68.5028 171.756C69.5528 172.123 70.6162 172.458 71.7735 172.734C72.833 172.986 74.4623 173.288 75.1813 172.443Z" fill="#EFAD1B"/>
<path fill-rule="evenodd" clip-rule="evenodd" d="M24.324 150.114C24.2338 149.482 25.8143 148.524 26.5432 148.377C27.7238 148.137 30.1395 149.069 31.6049 149.492C36.6595 150.949 41.8661 152.592 46.9034 154.139C52.3538 155.812 56.7713 157.113 62.2299 159.141C63.8562 159.744 66.2656 160.594 67.3234 162.039C67.9543 162.903 68.3224 165.346 67.3941 166.379C66.2582 167.641 63.5433 166.733 62.1996 165.811C61.4586 165.301 60.8649 164.551 60.1506 163.962C58.7057 162.77 57.1299 162.167 55.5763 161.614C51.2702 160.079 46.4267 158.51 42.1143 156.988C39.0766 155.918 36.0636 154.839 33.086 153.712C31.6176 153.156 30.0947 152.665 28.5794 152.193C27.1233 151.737 25.3696 151.443 24.324 150.114Z" fill="#8F7ECE"/>
<path opacity="0.62" fill-rule="evenodd" clip-rule="evenodd" d="M24.324 150.114C24.2338 149.482 25.8143 148.524 26.5432 148.377C27.7238 148.137 30.1395 149.069 31.6049 149.492C36.6595 150.949 41.8661 152.592 46.9034 154.139C52.3538 155.812 56.7713 157.113 62.2299 159.141C63.8562 159.744 66.2656 160.594 67.3234 162.039C67.9543 162.903 68.3224 165.346 67.3941 166.379C66.2582 167.641 63.5433 166.733 62.1996 165.811C61.4586 165.301 60.8649 164.551 60.1506 163.962C58.7057 162.77 57.1299 162.167 55.5763 161.614C51.2702 160.079 46.4267 158.51 42.1143 156.988C39.0766 155.918 36.0636 154.839 33.086 153.712C31.6176 153.156 30.0947 152.665 28.5794 152.193C27.1233 151.737 25.3696 151.443 24.324 150.114Z" fill="white"/>
<path d="M30.2296 149.064C30.0527 149.008 29.8743 148.953 29.6938 148.897C28.5579 149.695 27.4298 150.596 26.3008 151.482C26.4851 151.555 26.6704 151.62 26.8595 151.681C27.4417 151.254 28.0232 150.796 28.601 150.344C29.1445 149.919 29.6988 149.5 30.2296 149.064Z" fill="#8F7ECE"/>
<path d="M34.7836 150.426C34.6004 150.568 34.4335 150.751 34.2664 150.873C33.344 151.547 32.294 152.327 31.3867 153.105C31.5933 153.174 31.7997 153.243 32.0054 153.317C33.0546 152.5 34.0826 151.449 35.1235 150.526C35.0098 150.492 34.8973 150.459 34.7836 150.426Z" fill="#8F7ECE"/>
<path d="M40.8214 152.26C39.5392 153.139 38.1489 154.101 36.916 155.129C37.0677 155.185 37.2188 155.24 37.3717 155.295C38.6676 154.394 39.956 153.416 41.2391 152.39C41.0999 152.348 40.9603 152.304 40.8214 152.26Z" fill="#8F7ECE"/>
<path d="M45.674 153.762C44.4167 154.696 43.1366 155.817 42.0117 156.952C42.0467 156.964 42.0806 156.977 42.1132 156.988C42.2074 157.023 42.3068 157.056 42.4042 157.089C43.622 156.097 44.9057 154.994 46.062 153.879C45.9328 153.84 45.8037 153.801 45.674 153.762Z" fill="#8F7ECE"/>
<path d="M50.7753 155.325C49.4975 156.242 48.2367 157.354 46.9922 158.668C47.1356 158.716 47.2778 158.764 47.4221 158.812C48.6609 157.74 49.9503 156.528 51.1398 155.439C51.0184 155.401 50.897 155.364 50.7753 155.325Z" fill="#8F7ECE"/>
<path d="M55.8038 156.908C54.5816 157.862 53.0372 159.085 51.8242 160.308C51.9827 160.362 52.1401 160.416 52.298 160.469C53.5749 159.361 54.8414 158.113 56.12 157.011C56.0149 156.978 55.9086 156.942 55.8038 156.908Z" fill="#8F7ECE"/>
<path d="M60.5693 158.533C60.4191 158.48 60.2695 158.426 60.1213 158.375C58.8329 159.45 57.5302 160.658 56.2812 161.871C56.4816 161.945 56.682 162.023 56.8809 162.103C56.9483 162.035 57.0145 161.968 57.0807 161.902C58.197 160.784 59.4145 159.595 60.5693 158.533Z" fill="#8F7ECE"/>
<path d="M64.7093 160.139C64.5923 160.085 64.4738 160.03 64.3554 159.978C64.0244 160.34 63.6904 160.709 63.3374 161.07C62.3711 162.059 61.2824 163.137 60.4883 164.259C60.6112 164.374 60.7344 164.492 60.8549 164.609C62.1493 163.242 63.4238 161.627 64.7093 160.139Z" fill="#8F7ECE"/>
<path d="M65.0312 166.937C65.1687 166.959 65.3053 166.975 65.4403 166.985C66.271 166.046 67.1052 164.988 67.929 164.006C67.9198 163.893 67.9071 163.783 67.8905 163.673C66.936 164.743 65.9872 165.887 65.0312 166.937Z" fill="#8F7ECE"/>
<path fill-rule="evenodd" clip-rule="evenodd" d="M65.9835 168.96C66.7489 168.69 68.0848 168.98 69.3816 169.343C69.9358 169.5 70.83 169.765 70.7472 170.283C70.6486 170.9 69.5864 170.759 69.2061 170.708C68.0035 170.543 66.5823 170.1 65.896 169.642C65.7974 169.476 65.8529 169.14 65.9835 168.96Z" fill="white"/>
<path fill-rule="evenodd" clip-rule="evenodd" d="M69.6548 168.061C69.6129 166.745 72.4448 167.138 72.1782 168.198C72.0627 168.656 70.6241 168.98 69.9917 168.659C69.7658 168.543 69.6625 168.287 69.6548 168.061Z" fill="white"/>
<path d="M25.8079 168.479C26.3149 169.999 27.9558 170.818 29.4627 170.307L36.379 167.968C36.5916 167.899 36.707 167.664 36.634 167.452C36.5633 167.235 36.3327 167.12 36.1186 167.193L29.2017 169.532C28.1205 169.897 26.9446 169.309 26.5824 168.221C26.2178 167.132 26.8027 165.946 27.8836 165.582L35.874 162.879C36.631 162.624 37.4516 163.034 37.706 163.797C37.9581 164.557 37.5519 165.385 36.7949 165.637L30.1915 167.872C29.7468 168.024 29.2617 167.78 29.1121 167.332C28.9619 166.883 29.2047 166.396 29.6479 166.243L34.5357 164.593C34.7483 164.522 34.8637 164.289 34.7901 164.074C34.7195 163.859 34.4903 163.744 34.2762 163.816L29.3894 165.467C28.5192 165.764 28.0472 166.716 28.3408 167.595C28.6323 168.47 29.5814 168.944 30.4513 168.652L37.0547 166.419C38.2359 166.019 38.8745 164.725 38.4773 163.536C38.0801 162.346 36.7964 161.702 35.6166 162.101L27.6244 164.804C26.1163 165.313 25.3032 166.961 25.8079 168.479Z" fill="#B1BC00"/>
<path d="M120.733 160.159C120.599 160.2 120.459 160.196 120.332 160.156C120.134 160.09 119.966 159.931 119.899 159.716L116.967 150.147C116.9 149.93 116.951 149.704 117.078 149.538C117.161 149.432 117.275 149.348 117.408 149.307L137.825 143.675C138.181 143.564 138.552 143.765 138.661 144.121L141.197 152.4C141.306 152.753 141.11 153.132 140.757 153.24L121.499 159.894L120.733 160.159Z" fill="#4D3D87"/>
<path d="M107.993 159.865L99.7419 162.426L98.0898 160.732L97.168 159.785L107.032 156.725L107.993 159.865Z" fill="#B1BC00"/>
<path d="M113.538 163.939L109.21 165.282C108.769 165.419 108.295 165.171 108.159 164.721L107.154 161.448C107.019 161.002 106.544 160.746 106.101 160.887L103.284 161.76C102.841 161.899 102.368 161.65 102.23 161.2L101.537 158.935C101.401 158.49 101.651 158.014 102.093 157.875L104.912 157C105.353 156.863 105.606 156.391 105.469 155.94L104.464 152.667C104.329 152.221 104.579 151.743 105.021 151.606L109.348 150.262C109.796 150.124 110.265 150.379 110.402 150.823L114.095 162.877C114.234 163.328 113.984 163.8 113.538 163.939Z" fill="#4D3D87"/>
<path d="M113.39 164.148C113.218 164.202 113.034 164.195 112.874 164.145C112.619 164.06 112.403 163.855 112.316 163.575L108.542 151.254C108.457 150.976 108.52 150.684 108.684 150.467C108.791 150.335 108.935 150.227 109.109 150.172L135.403 142.919C135.856 142.776 136.337 143.035 136.477 143.493L139.743 154.152C139.884 154.612 139.63 155.099 139.177 155.239L114.378 163.806L113.39 164.148Z" fill="#B1BC00"/>
<path fill-rule="evenodd" clip-rule="evenodd" d="M130.559 145.708C131.246 146.031 132.519 145.886 133.762 145.668C134.291 145.574 135.149 145.41 135.118 144.919C135.084 144.338 134.08 144.368 133.723 144.382C132.587 144.422 131.223 144.704 130.541 145.066C130.432 145.211 130.453 145.53 130.559 145.708Z" fill="white"/>
<path fill-rule="evenodd" clip-rule="evenodd" d="M133.898 146.891C133.738 148.11 136.411 148.009 136.26 146.998C136.194 146.559 134.881 146.122 134.265 146.363C134.043 146.45 133.925 146.676 133.898 146.891Z" fill="white"/>
<path fill-rule="evenodd" clip-rule="evenodd" d="M112.475 156.527C113.2 156.978 113.848 158.267 114.412 159.574C114.651 160.133 115.025 161.042 114.552 161.317C113.986 161.644 113.397 160.678 113.188 160.332C112.526 159.235 111.947 157.774 111.865 156.905C111.932 156.715 112.242 156.539 112.475 156.527Z" fill="white"/>
<path fill-rule="evenodd" clip-rule="evenodd" d="M115.632 158.95C116.671 158.045 118.224 160.632 117.189 161.114C116.741 161.321 115.526 160.353 115.368 159.623C115.312 159.36 115.452 159.108 115.632 158.95Z" fill="white"/>
<path d="M97.9512 168.94L96.943 169.217L90.9803 170.198C90.5255 170.341 90.0458 170.079 89.9038 169.622L86.6385 158.963C86.4981 158.505 86.7493 158.018 87.2064 157.876L93.6694 154.965C93.844 154.912 94.0254 154.918 94.1872 154.97C94.4437 155.054 94.6595 155.258 94.7429 155.538L98.5192 167.858C98.6041 168.137 98.5411 168.43 98.3764 168.645C98.2716 168.78 98.1249 168.885 97.9512 168.94Z" fill="#4D3D87"/>
<path fill-rule="evenodd" clip-rule="evenodd" d="M90.645 166.222C89.9054 165.808 88.8821 162.504 90.0209 162.223C90.9496 161.996 91.7852 164.932 91.3586 165.84C91.2479 166.076 91.1081 166.185 90.645 166.222Z" fill="white"/>
<path fill-rule="evenodd" clip-rule="evenodd" d="M92.2938 161.772C91.3266 162.372 90.8801 160.698 91.4649 160.351C92.2519 159.883 93.1479 161.243 92.2938 161.772Z" fill="white"/>
<path fill-rule="evenodd" clip-rule="evenodd" d="M89.4337 160.833C88.4231 161.211 87.7643 158.659 88.7283 158.437C89.1344 158.344 89.3084 158.594 89.561 159.066C89.9348 159.762 90.1396 160.569 89.4337 160.833Z" fill="white"/>
<path fill-rule="evenodd" clip-rule="evenodd" d="M102.791 126.619C102.859 125.401 104.021 123.712 105.261 122.121C105.791 121.44 106.67 120.353 107.327 120.762C108.12 121.253 107.317 122.649 107.03 123.144C106.115 124.722 104.696 126.438 103.674 127.13C103.393 127.174 102.961 126.904 102.791 126.619Z" fill="white"/>
<path fill-rule="evenodd" clip-rule="evenodd" d="M105.325 119.382C103.498 118.687 105.657 114.981 106.955 115.957C107.518 116.382 107.138 118.565 106.338 119.257C106.049 119.504 105.643 119.501 105.325 119.382Z" fill="white"/>
<path fill-rule="evenodd" clip-rule="evenodd" d="M105.476 109.447C104.806 109.269 104.666 108.267 104.901 107.285C105.089 106.496 105.809 105.071 106.595 105.565C106.945 105.783 107.162 106.57 106.988 107.391C106.786 108.355 106.339 109.674 105.476 109.447Z" fill="white"/>
<path fill-rule="evenodd" clip-rule="evenodd" d="M53.1898 112.242C51.1324 113.193 51.2927 107.293 53.2637 108.339C54.2924 108.882 53.7256 111.276 53.1898 112.242Z" fill="white"/>
<path fill-rule="evenodd" clip-rule="evenodd" d="M50.9362 115.504C51.1274 115.062 51.761 114.263 52.6115 114.719C53.7221 115.314 53.8239 117.857 54.054 118.857C54.3358 120.074 55.4075 122.235 54.38 123.19C52.9146 124.549 51.8358 121.083 51.5125 119.876C51.343 119.234 51.2367 118.589 51.1188 118.039C50.9175 117.097 50.5648 116.353 50.9362 115.504Z" fill="white"/>
</g>
</g>
<defs>
<filter id="filter0_d_728_1363" x="0" y="0" width="160" height="181" filterUnits="userSpaceOnUse" color-interpolation-filters="sRGB">
<feFlood flood-opacity="0" result="BackgroundImageFix"/>
<feColorMatrix in="SourceAlpha" type="matrix" values="0 0 0 0 0 0 0 0 0 0 0 0 0 0 0 0 0 0 127 0" result="hardAlpha"/>
<feOffset dy="4"/>
<feGaussianBlur stdDeviation="2"/>
<feComposite in2="hardAlpha" operator="out"/>
<feColorMatrix type="matrix" values="0 0 0 0 0 0 0 0 0 0 0 0 0 0 0 0 0 0 0.25 0"/>
<feBlend mode="normal" in2="BackgroundImageFix" result="effect1_dropShadow_728_1363"/>
<feBlend mode="normal" in="SourceGraphic" in2="effect1_dropShadow_728_1363" result="shape"/>
</filter>
<clipPath id="clip0_728_1363">
<rect width="152" height="153" fill="white" transform="translate(4 20)"/>
</clipPath>
</defs>
</svg>
