<svg width="50" height="50" viewBox="0 0 50 50" fill="none" xmlns="http://www.w3.org/2000/svg">
<circle cx="25" cy="25" r="25" fill="url(#paint0_linear_318_32664)"/>
<path d="M17.0607 14.9393C16.4749 14.3536 15.5251 14.3536 14.9393 14.9393C14.3536 15.5251 14.3536 16.4749 14.9393 17.0607L17.0607 14.9393ZM31.9393 34.0607C32.5251 34.6464 33.4749 34.6464 34.0607 34.0607C34.6464 33.4749 34.6464 32.5251 34.0607 31.9393L31.9393 34.0607ZM34.0607 17.0607C34.6464 16.4749 34.6464 15.5251 34.0607 14.9393C33.4749 14.3536 32.5251 14.3536 31.9393 14.9393L34.0607 17.0607ZM14.9393 31.9393C14.3536 32.5251 14.3536 33.4749 14.9393 34.0607C15.5251 34.6464 16.4749 34.6464 17.0607 34.0607L14.9393 31.9393ZM14.9393 17.0607L31.9393 34.0607L34.0607 31.9393L17.0607 14.9393L14.9393 17.0607ZM31.9393 14.9393L14.9393 31.9393L17.0607 34.0607L34.0607 17.0607L31.9393 14.9393Z" fill="white"/>
<defs>
<linearGradient id="paint0_linear_318_32664" x1="25.1282" y1="50" x2="48.6852" y2="2.75435" gradientUnits="userSpaceOnUse">
<stop stop-color="#4271DF"/>
<stop offset="1" stop-color="#789CF1"/>
</linearGradient>
</defs>
</svg>
